<?xml version="1.0" encoding="UTF-8"?>
<!DOCTYPE svg PUBLIC "-//W3C//DTD SVG 1.1//EN" "http://www.w3.org/Graphics/SVG/1.1/DTD/svg11.dtd">
<!-- Creator: CorelDRAW 2021 (64 Bit) -->
<svg xmlns="http://www.w3.org/2000/svg" xml:space="preserve" width="308.52mm" height="303.465mm" version="1.1" style="shape-rendering:geometricPrecision; text-rendering:geometricPrecision; image-rendering:optimizeQuality; fill-rule:evenodd; clip-rule:evenodd"
viewBox="0 0 5964.27 5866.55"
 xmlns:xlink="http://www.w3.org/1999/xlink"
 xmlns:xodm="http://www.corel.com/coreldraw/odm/2003">
 <defs>
  <style type="text/css">
   <![CDATA[
    .fil0 {fill:white;fill-rule:nonzero}
   ]]>
  </style>
 </defs>
 <g id="Camada_x0020_1">
  <metadata id="CorelCorpID_0Corel-Layer"/>
  <g id="_1349634306512">
   <path class="fil0" d="M3901.95 4785.51c-62.93,-62.93 -165,-62.93 -227.92,0l-530.95 530.66 0 -1827.15c0,-89.02 -72.2,-161.23 -161.23,-161.23 -89.02,0 -161.23,72.2 -161.23,161.23l0 1827.15 -530.95 -530.66c-62.93,-62.93 -165,-62.93 -227.92,0 -62.93,62.93 -62.93,165 0,227.92l805.85 805.85c31.32,31.61 72.78,47.27 113.96,47.27 41.18,0 82.64,-15.66 113.96,-47.27l805.85 -805.85c63.51,-62.93 63.51,-165 0.58,-227.92z"/>
   <path class="fil0" d="M4748.68 1620.69c-77.42,-906.47 -840.36,-1620.69 -1766.55,-1620.69 -977.81,0 -1773.22,795.41 -1773.22,1773.22 0,80.61 5.8,162.1 17.4,243.29 -19.14,-1.16 -38.28,-1.45 -57.71,-1.45 -644.33,0 -1168.61,524.28 -1168.61,1168.61 0,644.33 524.28,1168.61 1168.61,1168.61l1007.38 0c89.02,0 161.23,-72.2 161.23,-161.23 0,-89.02 -72.2,-161.23 -161.23,-161.23l-1007.38 0c-466.58,0 -846.16,-379.58 -846.16,-846.16 0,-466.58 379.58,-846.16 846.16,-846.16 72.49,0 147.02,10.15 221.54,30.45 55.97,15.37 115.99,-0.87 156.88,-42.34 40.89,-41.18 56.26,-101.2 40.6,-157.17 -37.41,-131.65 -56.26,-264.46 -56.26,-395.24 0,-799.76 650.71,-1450.76 1450.76,-1450.76 800.05,0 1450.76,650.71 1450.76,1450.76 0,89.02 72.2,161.23 161.23,161.23 577.64,0 1047.69,470.05 1047.69,1047.69 0,577.64 -470.05,1047.69 -1047.69,1047.69l-805.85 0c-89.02,0 -161.23,72.2 -161.23,161.23 0,89.02 72.2,161.23 161.23,161.23l805.85 0c755.39,0 1370.15,-614.75 1370.15,-1370.15 0,-703.2 -532.69,-1284.31 -1215.59,-1361.45z"/>
  </g>
 </g>
</svg>
