<?xml version="1.0" encoding="UTF-8"?>
<!DOCTYPE svg PUBLIC "-//W3C//DTD SVG 1.1//EN" "http://www.w3.org/Graphics/SVG/1.1/DTD/svg11.dtd">
<!-- Creator: CorelDRAW 2021 (64 Bit) -->
<svg xmlns="http://www.w3.org/2000/svg" xml:space="preserve" width="210mm" height="153.259mm" version="1.1" style="shape-rendering:geometricPrecision; text-rendering:geometricPrecision; image-rendering:optimizeQuality; fill-rule:evenodd; clip-rule:evenodd"
viewBox="0 0 6525.44 4762.3"
 xmlns:xlink="http://www.w3.org/1999/xlink"
 xmlns:xodm="http://www.corel.com/coreldraw/odm/2003">
 <defs>
  <style type="text/css">
   <![CDATA[
    .fil0 {fill:white;fill-rule:nonzero}
   ]]>
  </style>
 </defs>
 <g id="Camada_x0020_1">
  <metadata id="CorelCorpID_0Corel-Layer"/>
  <g id="_2309360999616">
   <path class="fil0" d="M5925.61 4398.76l-1890.38 -2035.79 -145.41 109.06c-381.71,327.18 -872.48,327.18 -1254.19,0l-145.41 -109.06 -1890.38 2035.79 5325.78 0 0 0zm-5925.61 -181.77l0 -3671.7c0,-309 254.47,-545.3 545.3,-545.3l5434.84 0c290.83,0 545.3,236.3 545.3,545.3l0 3671.7c0,290.83 -236.3,545.3 -545.3,545.3l-5434.84 0c-309,0 -545.3,-254.47 -545.3,-545.3zm363.54 -109.06l1854.02 -1981.26 -1854.02 -1563.2 0 3544.46 0 -0zm309 -3744.4l2199.38 1835.85c236.3,199.94 545.3,199.94 781.6,0l2181.21 -1835.85 -5162.19 0zm5489.37 199.94l-1854.02 1563.2 1854.02 1981.26 0 -3544.46 0 0z"/>
  </g>
 </g>
</svg>
