<?xml version="1.0" encoding="UTF-8"?>
<!DOCTYPE svg PUBLIC "-//W3C//DTD SVG 1.1//EN" "http://www.w3.org/Graphics/SVG/1.1/DTD/svg11.dtd">
<!-- Creator: CorelDRAW 2021 (64 Bit) -->
<svg xmlns="http://www.w3.org/2000/svg" xml:space="preserve" width="115.367mm" height="115.367mm" version="1.1" style="shape-rendering:geometricPrecision; text-rendering:geometricPrecision; image-rendering:optimizeQuality; fill-rule:evenodd; clip-rule:evenodd"
viewBox="0 0 3610.17 3610.17"
 xmlns:xlink="http://www.w3.org/1999/xlink"
 xmlns:xodm="http://www.corel.com/coreldraw/odm/2003">
 <defs>
  <style type="text/css">
   <![CDATA[
    .fil0 {fill:white}
   ]]>
  </style>
 </defs>
 <g id="Camada_x0020_1">
  <metadata id="CorelCorpID_0Corel-Layer"/>
  <path class="fil0" d="M-0 458.32l0 2693.53c0,56.9 25.19,139.96 44.48,181.15 25.88,55.26 57.89,93.98 98.3,134.39 80.02,80.02 194.24,142.78 315.54,142.78l1332.66 0 0 -1290.36 -310.25 0c-75.79,0 -105.77,-29.98 -105.77,-105.77l0 -373.71c0,-50.99 28.2,-91.66 77.56,-91.66l338.45 0 0 -444.22c0,-202.32 82.48,-383.03 185.08,-484.78 236.32,-234.35 542.86,-192.13 858.49,-192.13 35.45,0 70.51,35.06 70.51,70.51l0 359.61c0,85.57 -102.17,70.54 -148.07,70.51 -463.09,-0.29 -408.97,78.4 -408.97,620.5l500.63 0c119.4,0 59.4,180.64 49.55,296.34 -4.5,52.85 -12.22,214.42 -46.97,249.18 -20.44,20.44 -42.33,25.62 -80.14,25.62l-423.07 0 0 1290.36 803.83 0c170.23,0 339.44,-126.04 411.54,-272.42 20.32,-41.25 46.78,-127.95 46.78,-185.9l0 -2693.53c0,-231.67 -227.05,-458.32 -458.32,-458.32l-2693.53 0c-170.23,0 -339.44,126.04 -411.54,272.42 -20.32,41.25 -46.78,127.95 -46.78,185.9z"/>
 </g>
</svg>
