<?xml version="1.0" encoding="UTF-8"?>
<!DOCTYPE svg PUBLIC "-//W3C//DTD SVG 1.1//EN" "http://www.w3.org/Graphics/SVG/1.1/DTD/svg11.dtd">
<!-- Creator: CorelDRAW 2021 (64 Bit) -->
<svg xmlns="http://www.w3.org/2000/svg" xml:space="preserve" width="278.28mm" height="243.36mm" version="1.1" style="shape-rendering:geometricPrecision; text-rendering:geometricPrecision; image-rendering:optimizeQuality; fill-rule:evenodd; clip-rule:evenodd"
viewBox="0 0 4727.23 4134.03"
 xmlns:xlink="http://www.w3.org/1999/xlink"
 xmlns:xodm="http://www.corel.com/coreldraw/odm/2003">
 <defs>
  <style type="text/css">
   <![CDATA[
    .fil0 {fill:white;fill-rule:nonzero}
   ]]>
  </style>
 </defs>
 <g id="Camada_x0020_1">
  <metadata id="CorelCorpID_0Corel-Layer"/>
  <path class="fil0" d="M3981.15 2299.4l-3241.18 0c-128.42,0 -232.39,-103.96 -232.39,-232.39l0 0c0,-128.42 103.96,-232.39 232.39,-232.39l3241.18 0c128.42,0 232.39,103.96 232.39,232.39l0 0c6.12,128.42 -103.96,232.39 -232.39,232.39z"/>
  <path class="fil0" d="M4488.73 464.77l-4256.34 0c-128.42,0 -232.39,-103.96 -232.39,-232.39l0 0c0,-128.42 103.96,-232.39 232.39,-232.39l4262.46 0c128.42,0 232.39,103.96 232.39,232.39l0 0c0,128.42 -103.96,232.39 -238.5,232.39z"/>
  <path class="fil0" d="M4488.73 4134.03l-4256.34 0c-128.42,0 -232.39,-103.96 -232.39,-232.39l0 0c0,-128.42 103.96,-232.39 232.39,-232.39l4262.46 0c128.42,0 232.39,103.96 232.39,232.39l0 0c0,128.42 -103.96,232.39 -238.5,232.39z"/>
 </g>
</svg>
