<?xml version="1.0" encoding="UTF-8"?>
<!DOCTYPE svg PUBLIC "-//W3C//DTD SVG 1.1//EN" "http://www.w3.org/Graphics/SVG/1.1/DTD/svg11.dtd">
<!-- Creator: CorelDRAW 2021 (64 Bit) -->
<svg xmlns="http://www.w3.org/2000/svg" xml:space="preserve" width="139.994mm" height="140.276mm" version="1.1" style="shape-rendering:geometricPrecision; text-rendering:geometricPrecision; image-rendering:optimizeQuality; fill-rule:evenodd; clip-rule:evenodd"
viewBox="0 0 3037.63 3043.76"
 xmlns:xlink="http://www.w3.org/1999/xlink"
 xmlns:xodm="http://www.corel.com/coreldraw/odm/2003">
 <defs>
  <style type="text/css">
   <![CDATA[
    .fil0 {fill:white}
   ]]>
  </style>
 </defs>
 <g id="Camada_x0020_1">
  <metadata id="CorelCorpID_0Corel-Layer"/>
  <g id="_2309644659104">
   <path class="fil0" d="M961.51 226.6l1083.99 0c195.32,0 406.76,34.67 546.72,169.82 133.09,128.52 218.82,238.33 218.82,497.72l0 1255.47c0,117.32 -25.24,212.39 -61.28,293.93 -43.91,99.35 -125.38,173.75 -208.21,232.74 -147.25,104.86 -293.8,134.75 -489.92,134.75 -92.05,0 -969.29,4.58 -1014.95,-1.68 -60.89,-8.35 -143.79,2.3 -208.31,-6.04 -77.78,-10.06 -100.35,-17.54 -170.59,-37.64 -31.37,-8.97 -43.96,-19.86 -72.51,-31.6 -67.64,-27.82 -132.13,-81.87 -182.64,-135.82 -127.85,-136.54 -176.03,-247.44 -176.03,-467.02l6.14 -1035.02c0.68,-182.49 -43.02,-372.74 90.93,-564.33l58.61 -76.13c11.34,-14.64 19.62,-23.3 33.25,-34.11 97.04,-77.02 170.62,-133.46 304.61,-166.96 77.57,-19.4 146.46,-28.1 241.37,-28.1zm-961.51 618.55l0 1371.83c0,178.51 72.9,329.86 147,434.81 43.04,60.96 86.69,101.94 139.22,154.74 93.19,93.67 251.2,170.42 379.97,201.84 74.69,18.22 169.35,29.49 264.69,29.27 199.19,-0.45 380.54,6.12 581.81,6.12 101.18,0 180.53,-6.12 281.72,-6.12 145.4,0 426.46,11.76 560.91,-27.02 59.62,-17.19 104.78,-28.28 163.8,-56.67 79.84,-38.41 158.05,-77.7 223.1,-138.23l75.03 -71.95c62.99,-82.91 44.1,-35.4 122.72,-171.25 52.08,-89.98 97.67,-229.25 97.67,-343.28l0 -1414.7c0,-254.21 -152.16,-486.15 -343.84,-629.92 -168.65,-126.49 -352.77,-184.61 -580.92,-184.61l-1224.85 0c-212.58,0 -464.26,97.92 -616.95,246.57 -21.85,21.27 -33.85,23.44 -54.15,49.96 -19.09,24.94 -32.52,34.93 -50.74,59.5 -35.97,48.52 -55.5,78.24 -84.54,135.94 -46.66,92.73 -81.64,216.8 -81.64,353.18z"/>
   <path class="fil0" d="M1035 1463.7c0,-482 682.38,-683.03 926.85,-198.07 98.92,196.23 22.92,414.79 -95.42,533.44 -139.48,139.85 -359.97,177.15 -539.34,101.33 -43.62,-18.44 -74.54,-41.02 -110.13,-67.47 -108.66,-80.72 -181.96,-231.28 -181.96,-369.23zm-226.6 -30.62c0,173.99 32.95,299.3 128.63,434.81 66.15,93.68 170.1,185.62 275.64,232.67 36.37,16.22 78.64,33.32 121.09,44.27 338.52,87.3 675.14,-65.07 832.2,-376.94 136.85,-271.74 68.04,-594.32 -140.31,-804.89l-90.4 -74.95c-30.57,-21.64 -70.74,-46.85 -108.43,-63.05 -206.78,-88.87 -407.99,-90.07 -614.16,1.86 -34.69,15.47 -74.39,40.12 -104.16,61.19 -167.48,118.53 -300.1,328.13 -300.1,545.05z"/>
   <path class="fil0" d="M2167.99 698.17c0,93.2 61.52,159.23 159.23,159.23 69.8,0 140.86,-71.06 140.86,-140.86l0 -30.62c0,-71.77 -64.78,-140.86 -159.23,-140.86 -75.93,0 -140.86,73.84 -140.86,153.11z"/>
  </g>
 </g>
</svg>
