<?xml version="1.0" encoding="UTF-8"?>
<!DOCTYPE svg PUBLIC "-//W3C//DTD SVG 1.1//EN" "http://www.w3.org/Graphics/SVG/1.1/DTD/svg11.dtd">
<!-- Creator: CorelDRAW 2021 (64 Bit) -->
<svg xmlns="http://www.w3.org/2000/svg" xml:space="preserve" width="121.8mm" height="189.09mm" version="1.1" style="shape-rendering:geometricPrecision; text-rendering:geometricPrecision; image-rendering:optimizeQuality; fill-rule:evenodd; clip-rule:evenodd"
viewBox="0 0 2425.9 3766.11"
 xmlns:xlink="http://www.w3.org/1999/xlink"
 xmlns:xodm="http://www.corel.com/coreldraw/odm/2003">
 <defs>
  <style type="text/css">
   <![CDATA[
    .fil0 {fill:white;fill-rule:nonzero}
   ]]>
  </style>
 </defs>
 <g id="Camada_x0020_1">
  <metadata id="CorelCorpID_0Corel-Layer"/>
  <g id="_2309359728000">
   <path class="fil0" d="M1212.95 0c-664.39,0 -1212.95,514.21 -1212.95,1171.12 0,474.96 289.81,957.33 568.57,1331.89 85.1,114.34 169.79,216.23 247.03,305.85 -7,3.69 -14.14,7.81 -20.91,11.77 -77.56,45.24 -145.59,110.55 -181.68,190.83l-320.23 0c-2.15,-0.11 -4.36,-0.17 -6.53,-0.17 -2.17,0 -4.38,0.06 -6.54,0.17 -66.76,3.47 -119.13,58.63 -119.13,125.48 0,69.38 56.27,125.65 125.65,125.65 2.18,0 4.39,-0.06 6.55,-0.17l321.54 0c36.23,79.38 103.18,144.49 180.38,189.52 83.72,48.84 183.46,81.39 292.78,95.42l0 91.49c0.01,0.56 -0.01,1.19 -0.01,1.77 0,69.29 56.19,125.49 125.49,125.49 69.29,0 125.49,-56.2 125.49,-125.49 0,-0.58 -0.02,-1.21 -0.02,-1.78l0 -91.49c109.32,-14.03 209.06,-46.57 292.78,-95.42 77.2,-45.03 144.15,-110.15 180.38,-189.52l321.54 0c0.56,-0.01 1.19,0.01 1.77,0.01 69.29,0 125.49,-56.2 125.49,-125.49 0,-69.29 -56.2,-125.49 -125.49,-125.49 -0.58,0 -1.21,0.02 -1.78,0.02l-320.23 -0c-36.1,-80.28 -104.12,-145.59 -181.68,-190.83 -6.71,-3.92 -13.97,-6.78 -20.91,-10.46 77.42,-89.79 161.7,-192.49 247.03,-307.16 278.76,-374.56 568.57,-856.93 568.57,-1331.89 0,-656.91 -548.56,-1171.12 -1212.95,-1171.12zm0 250.96c536.8,0 962,401.88 962,920.17 0,366.91 -253.92,825.53 -518.9,1181.58 -195.38,262.53 -353.98,429.68 -443.09,520.21 -89.12,-90.53 -247.71,-257.68 -443.09,-520.21 -264.98,-356.05 -518.9,-814.67 -518.9,-1181.58 0,-518.29 425.2,-920.17 962,-920.17zm0 209.13c-414.31,0 -752.87,338.56 -752.87,752.87 0,414.31 338.56,752.87 752.87,752.87 414.31,0 752.87,-338.56 752.87,-752.87 0,-414.31 -338.56,-752.87 -752.87,-752.87zm0 250.96c278.68,0 501.91,223.23 501.91,501.91 0,278.68 -223.23,501.91 -501.91,501.91 -278.68,0 -501.91,-223.23 -501.91,-501.91 0,-278.68 223.23,-501.91 501.91,-501.91zm-220.89 2295.19c77.68,82.01 134.63,137.24 134.63,137.24 23.29,22.05 54.19,34.35 86.27,34.35 32.08,0 62.98,-12.3 86.27,-34.35 -0,-0 56.94,-55.23 134.62,-137.24 26.22,9.39 50.61,19.72 70.58,31.37 66.83,38.99 84.96,76.61 84.96,99.34 0,22.72 -18.12,59.04 -84.96,98.03 -66.83,38.99 -172.66,69.27 -291.47,69.27 -118.82,0 -224.64,-30.29 -291.47,-69.27 -66.83,-38.99 -84.96,-75.31 -84.96,-98.03 0,-22.72 18.12,-60.35 84.96,-99.34 20.11,-11.73 44.11,-22.12 70.58,-31.37z"/>
  </g>
 </g>
</svg>
