<?xml version="1.0" encoding="UTF-8"?>
<!DOCTYPE svg PUBLIC "-//W3C//DTD SVG 1.1//EN" "http://www.w3.org/Graphics/SVG/1.1/DTD/svg11.dtd">
<!-- Creator: CorelDRAW 2021 (64 Bit) -->
<svg xmlns="http://www.w3.org/2000/svg" xml:space="preserve" width="281.768mm" height="226.241mm" version="1.1" style="shape-rendering:geometricPrecision; text-rendering:geometricPrecision; image-rendering:optimizeQuality; fill-rule:evenodd; clip-rule:evenodd"
viewBox="0 0 4037.44 3241.79"
 xmlns:xlink="http://www.w3.org/1999/xlink"
 xmlns:xodm="http://www.corel.com/coreldraw/odm/2003">
 <defs>
  <style type="text/css">
   <![CDATA[
    .fil0 {fill:white}
   ]]>
  </style>
 </defs>
 <g id="Camada_x0020_1">
  <metadata id="CorelCorpID_0Corel-Layer"/>
  <path class="fil0" d="M1482.95 1047.74c-15.22,55.02 -7.75,129.39 -46.89,250.69 -24.8,76.87 -57.9,141.58 -99.7,198.59 -80.78,110.17 -193.39,188.9 -349.9,251.72 -142.22,57.09 -296.51,47.44 -395.35,206.08 -59.11,94.86 -78.73,367.68 -99.42,503.08 -13.4,87.68 -25.2,172.46 -37.79,260.25 -14.64,102.11 -20.68,166.23 14.06,261.99 47.39,130.66 173.24,245.32 342.09,258.06 96.69,7.29 474.56,1.19 601.12,1.19 500.44,0 1000.88,0 1501.31,0 98.07,0 206.62,4.39 303.42,-0.6 174.81,-9.01 297.27,-123.02 348.74,-251.52 58.98,-147.23 2.04,-360.37 -19.74,-521.18 -11.82,-87.3 -24.73,-172.52 -37.55,-260.58 -13.38,-91.9 -16.28,-171.31 -59.46,-244.11 -147.89,-249.35 -468.41,-105.78 -744.43,-458.55 -68.75,-87.87 -110.82,-201.16 -132.11,-317.9 -7.9,-43.3 -9.03,-93.32 -17.4,-133.77 -60.65,-30.79 -436.68,-38.24 -531.12,-38.37 -188.01,-0.27 -359.97,8.28 -539.86,34.93zm384.97 -1044.3c-495.32,20.31 -905.35,103.89 -1304.68,280.71 -193.57,85.71 -357.67,198.61 -466.79,321.82 -80.29,90.66 -97.4,143.72 -96.41,298.61 2.65,416.63 137.95,611.38 618.56,522.35 230.9,-42.77 420.45,-106.5 450.18,-344.38 25.84,-206.73 -96.65,-357.06 351.35,-437.23 219.17,-39.22 521.73,-51.76 754.31,-39.59 217.18,11.36 505.78,20.42 677.39,111.74 128.85,68.57 106.68,114.08 110.42,283.16 5.91,266.78 129.87,353.82 383.14,411.58 369.84,84.34 663.97,59.67 687.38,-421.48 7.31,-150.18 15.52,-231.02 -56.08,-336.48 -140.55,-207.01 -483.2,-377.59 -727.59,-460.22 -421.53,-142.53 -891.88,-210.66 -1381.18,-190.59zm100.87 1718.74c-265.8,28.04 -492.39,254.61 -460.48,557 27.26,258.35 264.51,481.92 563.7,449.56 263.7,-28.52 488.27,-262.45 454.92,-558.4 -29.09,-258.13 -263.63,-479.23 -558.14,-448.16z"/>
 </g>
</svg>
