<?xml version="1.0" encoding="UTF-8"?>
<!DOCTYPE svg PUBLIC "-//W3C//DTD SVG 1.1//EN" "http://www.w3.org/Graphics/SVG/1.1/DTD/svg11.dtd">
<!-- Creator: CorelDRAW 2021 (64 Bit) -->
<svg xmlns="http://www.w3.org/2000/svg" xml:space="preserve" width="200.96mm" height="191.723mm" version="1.1" style="shape-rendering:geometricPrecision; text-rendering:geometricPrecision; image-rendering:optimizeQuality; fill-rule:evenodd; clip-rule:evenodd"
viewBox="0 0 13253 12643.86"
 xmlns:xlink="http://www.w3.org/1999/xlink"
 xmlns:xodm="http://www.corel.com/coreldraw/odm/2003">
 <defs>
  <style type="text/css">
   <![CDATA[
    .fil0 {fill:white;fill-rule:nonzero}
   ]]>
  </style>
 </defs>
 <g id="Camada_x0020_1">
  <metadata id="CorelCorpID_0Corel-Layer"/>
  <path class="fil0" d="M9071.1 9302.27c-97.97,97.97 -217.1,169.59 -353.57,216.3 16.5,27.78 36.47,53.81 59.97,77.3 157.88,157.88 429.32,157.88 587.21,0 182.81,-182.81 365.62,-365.62 548.43,-548.43 66.48,-66.48 138.49,-132.95 202.2,-204.97 260.36,-299.14 243.75,-731.24 -24.93,-1019.3 -177.27,-188.35 -365.62,-365.62 -548.43,-548.43 -63.71,-63.71 -124.64,-130.18 -191.12,-191.12 -288.06,-265.9 -720.16,-288.06 -1019.3,-24.93 -185.58,163.42 -357.31,349 -529.04,526.27 -13.85,13.85 -72.02,52.63 -13.85,16.62 63.71,-41.55 -8.31,2.77 -16.62,5.54 -55.4,22.16 36.01,2.77 33.24,-11.08 0,2.77 -116.33,38.78 -119.1,33.24 -2.77,-5.54 113.56,-5.54 30.47,-5.54 -27.7,0 -55.4,2.77 -83.1,2.77 -19.39,0 -38.78,0 -58.17,-2.77 -8.31,0 -102.48,-13.85 -36.01,-2.77 72.02,11.08 -33.24,-8.31 -38.78,-8.31 -22.16,-5.54 -44.32,-8.31 -63.71,-13.85 -55.4,-13.85 -110.79,-30.47 -166.19,-49.86 -22.16,-8.31 -47.09,-16.62 -69.25,-24.93 -113.56,-41.55 69.25,36.01 -41.55,-16.62 -110.79,-52.63 -218.82,-110.79 -324.07,-174.5 -113.56,-69.25 -249.29,-163.42 -321.3,-218.82 -240.98,-191.12 -454.25,-409.94 -653.68,-645.37 -52.63,-60.94 -135.72,-180.04 -202.2,-279.75 -74.79,-116.33 -141.26,-235.44 -199.43,-360.08 -11.08,-22.16 -22.16,-47.09 -30.47,-69.25 30.47,72.02 0,-2.77 -5.54,-22.16 -16.62,-49.86 -36.01,-99.71 -49.86,-149.57 -13.85,-47.09 -22.16,-96.94 -33.24,-144.03 -5.54,-27.7 -8.31,-99.71 0,2.77 -2.77,-30.47 -5.54,-58.17 -5.54,-88.63 0,-41.55 5.54,-83.1 2.77,-124.64 -2.77,-52.63 -33.24,96.94 0,19.39 5.54,-13.85 8.31,-36.01 13.85,-47.09 24.93,-108.02 -33.24,55.4 11.08,-22.16 44.32,-77.56 -66.48,58.17 13.85,-19.39 88.63,-85.86 174.5,-174.5 260.36,-260.36 80.33,-80.33 166.19,-157.88 243.75,-243.75 268.67,-288.06 288.06,-720.16 24.93,-1019.3 -171.73,-196.66 -371.16,-373.93 -556.74,-559.51 -69.25,-69.25 -135.72,-141.26 -207.74,-207.74 -254.83,-238.21 -639.83,-293.6 -936.21,-91.4 -235.44,160.65 -426.56,404.4 -625.98,603.82 -213.28,213.28 -407.17,412.71 -517.96,700.77 -146.8,385.01 -110.79,828.18 -19.39,1224.27 113.56,493.03 340.69,963.9 603.82,1393.23 637.06,1041.46 1548.34,1952.74 2584.26,2598.11 426.56,265.9 894.66,493.03 1382.15,614.9 396.09,99.71 844.8,144.03 1238.12,5.54 196.66,-69.25 371.16,-171.73 523.5,-318.53 160.65,-155.11 157.88,-429.32 0,-587.21 -2.59,-2.59 -5.21,-5.14 -7.85,-7.65l-294.06 292.94zm-6448.18 1642.51c1038.69,955.59 2351.59,1542.8 3758.67,1672.98 1213.19,113.56 2451.31,-146.8 3523.23,-717.39 2088.46,-1107.94 3409.67,-3373.66 3345.96,-5736.34 -58.17,-2343.28 -1462.47,-4542.54 -3589.71,-5545.22 -1071.93,-506.88 -2279.58,-720.16 -3459.53,-573.36 -1199.34,146.8 -2310.05,614.9 -3251.79,1371.07 -1963.82,1570.5 -2792,4276.63 -2082.92,6683.62 105.25,357.31 246.52,706.31 409.94,1041.46 0,-138.49 0,-279.75 0,-418.25 -357.31,686.92 -714.62,1371.07 -1071.93,2057.99 -52.63,99.71 -102.48,196.66 -155.11,296.37 -166.19,321.3 108.02,700.77 468.1,609.36 731.24,-185.58 1465.24,-371.16 2196.48,-556.74 102.48,-24.93 207.74,-52.63 310.22,-77.56 218.82,-55.4 349,-299.14 290.83,-512.42 -60.94,-221.59 -293.6,-346.23 -512.42,-290.83 -731.24,185.58 -1465.24,371.16 -2196.48,556.74 -102.48,24.93 -207.74,52.63 -310.22,77.56 155.11,202.2 312.99,407.17 468.1,609.36 324.07,-609.36 642.6,-1221.5 961.13,-1836.4 72.02,-135.72 141.26,-271.44 213.28,-407.17 16.62,-30.47 33.24,-63.71 49.86,-94.17 11.08,-22.16 16.62,-33.24 27.7,-60.94 74.79,-185.58 -5.54,-332.38 -83.1,-498.57 -321.3,-689.69 -490.26,-1495.71 -490.26,-2274.04 0,-160.65 5.54,-324.07 19.39,-484.72 5.54,-77.56 13.85,-152.34 22.16,-229.9 2.77,-19.39 5.54,-38.78 8.31,-58.17 0,5.54 -8.31,66.48 -2.77,16.62 5.54,-44.32 13.85,-88.63 19.39,-130.18 52.63,-312.99 132.95,-623.21 235.44,-925.13 24.93,-69.25 49.86,-138.49 74.79,-207.74 13.85,-33.24 27.7,-69.25 41.55,-102.48 16.62,-44.32 -2.77,8.31 -5.54,13.85 8.31,-22.16 19.39,-44.32 30.47,-66.48 60.94,-138.49 130.18,-276.98 202.2,-412.71 144.03,-268.67 310.22,-523.5 493.03,-764.48 27.7,-38.78 -5.54,5.54 -8.31,11.08 11.08,-13.85 22.16,-27.7 33.24,-41.55 22.16,-27.7 44.32,-55.4 69.25,-85.86 49.86,-60.94 102.48,-119.1 155.11,-180.04 99.71,-113.56 204.97,-221.59 315.76,-326.84 113.56,-108.02 232.67,-213.28 354.54,-312.99 27.7,-22.16 55.4,-44.32 85.86,-69.25 36.01,-30.47 -8.31,5.54 -11.08,8.31 13.85,-11.08 27.7,-22.16 44.32,-33.24 63.71,-47.09 127.41,-94.17 191.12,-138.49 252.06,-171.73 515.19,-324.07 789.4,-457.02 66.48,-30.47 132.95,-60.94 199.43,-91.4 72.02,-33.24 -38.78,13.85 36.01,-13.85 38.78,-16.62 80.33,-30.47 119.1,-47.09 144.03,-55.4 290.83,-105.25 440.4,-146.8 149.57,-44.32 301.91,-80.33 454.25,-113.56 80.33,-16.62 160.65,-30.47 240.98,-44.32 38.78,-5.54 74.79,-11.08 113.56,-16.62 -77.56,11.08 33.24,-2.77 60.94,-8.31 321.3,-36.01 645.37,-47.09 966.67,-30.47 160.65,8.31 318.53,22.16 479.18,41.55 -72.02,-8.31 13.85,2.77 38.78,5.54 38.78,5.54 74.79,11.08 110.79,19.39 80.33,13.85 160.65,30.47 240.98,47.09 301.91,66.48 601.05,157.88 889.12,271.44 16.62,5.54 105.25,41.55 69.25,27.7 -36.01,-13.85 52.63,22.16 69.25,30.47 77.56,36.01 155.11,72.02 232.67,110.79 135.72,69.25 268.67,141.26 401.63,218.82 130.18,77.56 257.59,160.65 382.24,249.29 30.47,22.16 58.17,41.55 88.63,63.71 13.85,11.08 88.63,66.48 58.17,44.32 -30.47,-22.16 44.32,36.01 58.17,47.09 33.24,27.7 66.48,52.63 96.94,80.33 229.9,193.89 448.71,407.17 645.37,634.29 47.09,55.4 94.17,110.79 141.26,166.19 22.16,27.7 44.32,55.4 69.25,85.86 -47.09,-58.17 19.39,27.7 33.24,47.09 91.4,121.87 174.5,246.52 254.83,376.7 83.1,132.95 163.42,271.44 235.44,412.71 33.24,66.48 66.48,130.18 96.94,196.66 16.62,33.24 30.47,66.48 47.09,99.71 8.31,16.62 13.85,33.24 22.16,49.86 2.77,8.31 33.24,77.56 13.85,36.01 -13.85,-36.01 22.16,55.4 27.7,69.25 13.85,33.24 27.7,69.25 38.78,102.48 27.7,74.79 55.4,152.34 80.33,227.13 47.09,146.8 91.4,296.37 127.41,448.71 36.01,152.34 66.48,307.45 91.4,462.56 2.77,24.93 16.62,113.56 5.54,38.78 5.54,38.78 8.31,74.79 13.85,113.56 8.31,83.1 16.62,166.19 22.16,249.29 22.16,329.61 16.62,659.22 -13.85,988.83 -2.77,38.78 -8.31,74.79 -11.08,113.56 -2.77,27.7 -16.62,113.56 -5.54,41.55 -11.08,80.33 -24.93,163.42 -38.78,243.75 -27.7,155.11 -63.71,307.45 -105.25,457.02 -41.55,149.57 -85.86,296.37 -138.49,443.17 -24.93,69.25 -52.63,138.49 -77.56,207.74 -5.54,16.62 -13.85,33.24 -22.16,52.63 2.77,-5.54 24.93,-58.17 5.54,-13.85 -16.62,38.78 -33.24,77.56 -52.63,116.33 -127.41,276.98 -274.21,545.66 -443.17,797.71 -38.78,60.94 -80.33,121.87 -124.64,180.04 -22.16,30.47 -41.55,58.17 -63.71,88.63 -11.08,13.85 -22.16,27.7 -33.24,44.32 -38.78,49.86 38.78,-47.09 -2.77,2.77 -96.94,124.64 -199.43,243.75 -307.45,360.08 -204.97,221.59 -426.56,426.56 -664.76,617.67 -13.85,11.08 -27.7,22.16 -41.55,33.24 5.54,-2.77 49.86,-38.78 11.08,-8.31 -30.47,22.16 -58.17,44.32 -88.63,63.71 -63.71,47.09 -127.41,91.4 -193.89,135.72 -127.41,85.86 -254.83,163.42 -387.78,238.21 -132.95,74.79 -268.67,144.03 -407.17,207.74 -33.24,16.62 -66.48,30.47 -99.71,44.32 -22.16,11.08 -102.48,41.55 -36.01,16.62 -74.79,30.47 -149.57,58.17 -224.36,85.86 -299.14,108.02 -606.59,193.89 -916.82,252.06 -74.79,13.85 -149.57,24.93 -224.36,38.78 -80.33,13.85 41.55,-2.77 -41.55,5.54 -44.32,5.54 -88.63,11.08 -132.95,13.85 -160.65,16.62 -321.3,24.93 -481.95,27.7 -185.58,2.77 -371.16,0 -553.97,-13.85 -91.4,-5.54 -182.81,-16.62 -271.44,-24.93 -49.86,-5.54 -11.08,0 -2.77,0 -22.16,-2.77 -44.32,-5.54 -66.48,-11.08 -52.63,-8.31 -102.48,-16.62 -155.11,-24.93 -750.63,-132.95 -1365.53,-371.16 -1999.82,-770.02 -146.8,-91.4 -288.06,-191.12 -426.56,-296.37 -38.78,-27.7 -8.31,-8.31 0,0 -16.62,-13.85 -33.24,-27.7 -49.86,-41.55 -33.24,-27.7 -66.48,-55.4 -99.71,-83.1 -72.02,-60.94 -141.26,-121.87 -210.51,-185.58 -166.19,-152.34 -423.79,-163.42 -587.21,0 -155.11,160.65 -168.96,440.4 -2.77,592.75z"/>
 </g>
</svg>
